<?xml version="1.0" standalone="no"?>
<svg xmlns:xlink="http://www.w3.org/1999/xlink" id="wave" style="transform:rotate(180deg); transition: 0.3s" viewBox="0 0 1440 490" version="1.1" xmlns="http://www.w3.org/2000/svg"><defs><linearGradient id="sw-gradient-0" x1="0" x2="0" y1="1" y2="0"><stop stop-color="rgba(0, 224, 198, 1)" offset="0%"/><stop stop-color="rgba(0, 147, 147, 1)" offset="100%"/></linearGradient></defs><path style="transform:translate(0, 0px); opacity:1" fill="url(#sw-gradient-0)" d="M0,294L60,253.2C120,212,240,131,360,89.8C480,49,600,49,720,98C840,147,960,245,1080,253.2C1200,261,1320,180,1440,138.8C1560,98,1680,98,1800,147C1920,196,2040,294,2160,318.5C2280,343,2400,294,2520,236.8C2640,180,2760,114,2880,81.7C3000,49,3120,49,3240,114.3C3360,180,3480,310,3600,302.2C3720,294,3840,147,3960,147C4080,147,4200,294,4320,326.7C4440,359,4560,278,4680,245C4800,212,4920,229,5040,220.5C5160,212,5280,180,5400,196C5520,212,5640,278,5760,310.3C5880,343,6000,343,6120,310.3C6240,278,6360,212,6480,196C6600,180,6720,212,6840,204.2C6960,196,7080,147,7200,138.8C7320,131,7440,163,7560,204.2C7680,245,7800,294,7920,294C8040,294,8160,245,8280,204.2C8400,163,8520,131,8580,114.3L8640,98L8640,490L8580,490C8520,490,8400,490,8280,490C8160,490,8040,490,7920,490C7800,490,7680,490,7560,490C7440,490,7320,490,7200,490C7080,490,6960,490,6840,490C6720,490,6600,490,6480,490C6360,490,6240,490,6120,490C6000,490,5880,490,5760,490C5640,490,5520,490,5400,490C5280,490,5160,490,5040,490C4920,490,4800,490,4680,490C4560,490,4440,490,4320,490C4200,490,4080,490,3960,490C3840,490,3720,490,3600,490C3480,490,3360,490,3240,490C3120,490,3000,490,2880,490C2760,490,2640,490,2520,490C2400,490,2280,490,2160,490C2040,490,1920,490,1800,490C1680,490,1560,490,1440,490C1320,490,1200,490,1080,490C960,490,840,490,720,490C600,490,480,490,360,490C240,490,120,490,60,490L0,490Z"/></svg>